# MagicaVoxel @ Ephtracy

# group
o 

# material
mtllib dziewczyna.mtl
usemtl palette

# normals
vn -1 0 0
vn 1 0 0
vn 0 0 1
vn 0 0 -1
vn 0 -1 0
vn 0 1 0

# texcoords
vt 0.0332031 0.5
vt 0.212891 0.5
vt 0.240234 0.5
vt 0.283203 0.5
vt 0.400391 0.5
vt 0.986328 0.5
vt 0.990234 0.5
vt 0.994141 0.5

# verts
v -0.4 0.2 0.1
v -0.4 0.2 0
v -0.4 0.6 0.1
v -0.4 0.6 0
v -0.3 0.2 0.2
v -0.3 0.2 0.1
v -0.3 0.2 0
v -0.3 0.2 -0.1
v -0.3 0.3 0.2
v -0.3 0.3 0.1
v -0.3 0.3 0
v -0.3 0.3 -0.1
v -0.3 0.4 0.2
v -0.3 0.4 0.1
v -0.3 0.4 0
v -0.3 0.4 -0.1
v -0.3 0.5 -0.1
v -0.3 0.5 -0.2
v -0.3 0.6 0.2
v -0.3 0.6 0.1
v -0.3 0.6 0
v -0.3 0.6 -0.1
v -0.3 0.7 0.2
v -0.3 0.7 0.1
v -0.3 0.7 0
v -0.3 0.7 -0.1
v -0.3 0.7 -0.2
v -0.3 0.8 0.2
v -0.3 0.8 0.1
v -0.3 0.9 0.1
v -0.3 0.9 -0.1
v -0.2 0 0.1
v -0.2 0 0
v -0.2 0.2 0.1
v -0.2 0.2 0
v -0.2 0.6 0.2
v -0.2 0.6 0.1
v -0.2 0.7 0.3
v -0.2 0.7 0.2
v -0.2 0.7 0.1
v -0.2 0.8 0.3
v -0.2 0.8 0.2
v -0.2 0.8 0.1
v -0.2 0.9 0.2
v -0.2 0.9 0.1
v -0.2 0.9 0
v -0.2 0.9 -0.1
v -0.2 0.9 -0.2
v -0.2 1 0.1
v -0.2 1 0
v -0.2 1 -0.1
v -0.2 1 -0.2
v -0.1 0.8 -0.1
v -0.1 0.8 -0.2
v -0.1 0.9 -0.1
v -0.1 0.9 -0.2
v 0 0 0.1
v 0 0 0
v 0 0.2 0.1
v 0 0.2 0
v 0.1 0.3 0.1
v 0.1 0.3 0
v 0.1 0.4 0.1
v 0.1 0.4 0
v 0.1 0.5 0
v 0.1 0.5 -0.1
v 0.1 0.5 -0.2
v 0.1 0.6 0.1
v 0.1 0.6 0
v 0.1 0.6 -0.1
v 0.1 0.7 -0.1
v 0.1 0.7 -0.2
v -0.2 0.3 0.1
v -0.2 0.3 0
v -0.2 0.4 0.1
v -0.2 0.4 0
v -0.2 0.5 0.1
v -0.2 0.5 0
v -0.2 0.5 -0.1
v -0.2 0.5 -0.2
v -0.2 0.6 -0.1
v -0.2 0.7 -0.1
v -0.2 0.7 -0.2
v -0.1 0 0.1
v -0.1 0 0
v -0.1 0.2 0.1
v -0.1 0.2 0
v -0.1 0.5 0.1
v -0.1 0.5 0
v -0.1 0.6 0.1
v -0.1 0.6 0
v 0.1 0 0.1
v 0.1 0 0
v 0.1 0.2 0.1
v 0.1 0.2 0
v 0.1 0.6 0.2
v 0.1 0.6 0.1
v 0.1 0.7 0.3
v 0.1 0.7 0.2
v 0.1 0.7 0.1
v 0.1 0.8 0.3
v 0.1 0.8 0.2
v 0.1 0.8 0.1
v 0.1 0.8 -0.1
v 0.1 0.8 -0.2
v 0.1 0.9 0.2
v 0.1 0.9 0.1
v 0.1 0.9 0
v 0.1 0.9 -0.1
v 0.1 1 0.1
v 0.1 1 0
v 0.1 1 -0.1
v 0.1 1 -0.2
v 0.2 0.2 0.2
v 0.2 0.2 0.1
v 0.2 0.2 0
v 0.2 0.2 -0.1
v 0.2 0.3 0.2
v 0.2 0.3 0.1
v 0.2 0.3 0
v 0.2 0.3 -0.1
v 0.2 0.4 0.2
v 0.2 0.4 0.1
v 0.2 0.4 0
v 0.2 0.4 -0.1
v 0.2 0.5 -0.1
v 0.2 0.5 -0.2
v 0.2 0.6 0.2
v 0.2 0.6 0.1
v 0.2 0.6 0
v 0.2 0.6 -0.1
v 0.2 0.7 0.2
v 0.2 0.7 0.1
v 0.2 0.7 0
v 0.2 0.7 -0.1
v 0.2 0.7 -0.2
v 0.2 0.8 0.2
v 0.2 0.8 0.1
v 0.2 0.9 0.1
v 0.2 0.9 -0.1
v 0.3 0.2 0.1
v 0.3 0.2 0
v 0.3 0.6 0.1
v 0.3 0.6 0
v -0.2 0.7 0.3
v -0.2 0.8 0.3
v 0.1 0.7 0.3
v 0.1 0.8 0.3
v -0.3 0.2 0.2
v -0.3 0.3 0.2
v -0.3 0.4 0.2
v -0.3 0.6 0.2
v -0.3 0.7 0.2
v -0.3 0.8 0.2
v -0.2 0.6 0.2
v -0.2 0.7 0.2
v -0.2 0.8 0.2
v -0.2 0.9 0.2
v 0.1 0.6 0.2
v 0.1 0.7 0.2
v 0.1 0.8 0.2
v 0.1 0.9 0.2
v 0.2 0.2 0.2
v 0.2 0.3 0.2
v 0.2 0.4 0.2
v 0.2 0.6 0.2
v 0.2 0.7 0.2
v 0.2 0.8 0.2
v -0.4 0.2 0.1
v -0.4 0.6 0.1
v -0.3 0.2 0.1
v -0.3 0.3 0.1
v -0.3 0.4 0.1
v -0.3 0.6 0.1
v -0.3 0.7 0.1
v -0.3 0.8 0.1
v -0.3 0.9 0.1
v -0.2 0 0.1
v -0.2 0.2 0.1
v -0.2 0.6 0.1
v -0.2 0.7 0.1
v -0.2 0.8 0.1
v -0.2 0.9 0.1
v -0.2 1 0.1
v -0.1 0 0.1
v -0.1 0.2 0.1
v 0 0 0.1
v 0 0.2 0.1
v 0.1 0 0.1
v 0.1 0.2 0.1
v 0.1 0.6 0.1
v 0.1 0.7 0.1
v 0.1 0.8 0.1
v 0.1 0.9 0.1
v 0.1 1 0.1
v 0.2 0.2 0.1
v 0.2 0.3 0.1
v 0.2 0.4 0.1
v 0.2 0.6 0.1
v 0.2 0.7 0.1
v 0.2 0.8 0.1
v 0.2 0.9 0.1
v 0.3 0.2 0.1
v 0.3 0.6 0.1
v -0.2 0.3 0
v -0.2 0.4 0
v -0.2 0.5 0
v -0.1 0.3 0
v -0.1 0.5 0
v -0.1 0.6 0
v 0 0.3 0
v 0.1 0.3 0
v 0.1 0.4 0
v 0.1 0.5 0
v 0.1 0.6 0
v -0.2 0.3 0.1
v -0.2 0.4 0.1
v -0.2 0.5 0.1
v -0.1 0.3 0.1
v -0.1 0.5 0.1
v -0.1 0.6 0.1
v 0 0.3 0.1
v 0.1 0.3 0.1
v 0.1 0.4 0.1
v 0.1 0.6 0.1
v -0.4 0.2 0
v -0.4 0.6 0
v -0.3 0.2 0
v -0.3 0.3 0
v -0.3 0.4 0
v -0.3 0.6 0
v -0.2 0 0
v -0.2 0.2 0
v -0.1 0 0
v -0.1 0.2 0
v 0 0 0
v 0 0.2 0
v 0.1 0 0
v 0.1 0.2 0
v 0.2 0.2 0
v 0.2 0.3 0
v 0.2 0.4 0
v 0.2 0.6 0
v 0.3 0.2 0
v 0.3 0.6 0
v -0.3 0.2 -0.1
v -0.3 0.3 -0.1
v -0.3 0.4 -0.1
v -0.3 0.5 -0.1
v -0.3 0.7 -0.1
v -0.3 0.9 -0.1
v -0.2 0.3 -0.1
v -0.2 0.4 -0.1
v -0.2 0.5 -0.1
v -0.2 0.6 -0.1
v -0.2 0.7 -0.1
v -0.2 0.8 -0.1
v -0.2 0.9 -0.1
v -0.1 0.7 -0.1
v -0.1 0.8 -0.1
v -0.1 0.9 -0.1
v 0 0.7 -0.1
v 0 0.8 -0.1
v 0.1 0.3 -0.1
v 0.1 0.4 -0.1
v 0.1 0.5 -0.1
v 0.1 0.6 -0.1
v 0.1 0.7 -0.1
v 0.1 0.8 -0.1
v 0.1 0.9 -0.1
v 0.2 0.2 -0.1
v 0.2 0.3 -0.1
v 0.2 0.4 -0.1
v 0.2 0.5 -0.1
v 0.2 0.7 -0.1
v 0.2 0.9 -0.1
v -0.3 0.5 -0.2
v -0.3 0.7 -0.2
v -0.2 0.5 -0.2
v -0.2 0.7 -0.2
v -0.2 0.9 -0.2
v -0.2 1 -0.2
v -0.1 0.8 -0.2
v -0.1 0.9 -0.2
v 0.1 0.5 -0.2
v 0.1 0.7 -0.2
v 0.1 0.8 -0.2
v 0.1 1 -0.2
v 0.2 0.5 -0.2
v 0.2 0.7 -0.2
v -0.2 0 0.1
v -0.1 0 0.1
v 0 0 0.1
v 0.1 0 0.1
v -0.2 0 0
v -0.1 0 0
v 0 0 0
v 0.1 0 0
v -0.3 0.2 0.2
v 0.2 0.2 0.2
v -0.4 0.2 0.1
v -0.3 0.2 0.1
v -0.2 0.2 0.1
v -0.1 0.2 0.1
v 0 0.2 0.1
v 0.1 0.2 0.1
v 0.2 0.2 0.1
v 0.3 0.2 0.1
v -0.4 0.2 0
v -0.3 0.2 0
v -0.2 0.2 0
v -0.1 0.2 0
v 0 0.2 0
v 0.1 0.2 0
v 0.2 0.2 0
v 0.3 0.2 0
v -0.3 0.2 -0.1
v 0.2 0.2 -0.1
v -0.2 0.5 0.1
v -0.1 0.5 0.1
v -0.2 0.5 0
v -0.1 0.5 0
v -0.3 0.5 -0.1
v -0.2 0.5 -0.1
v 0.1 0.5 -0.1
v 0.2 0.5 -0.1
v -0.3 0.5 -0.2
v -0.2 0.5 -0.2
v 0.1 0.5 -0.2
v 0.2 0.5 -0.2
v -0.1 0.6 0.1
v 0.1 0.6 0.1
v -0.1 0.6 0
v 0.1 0.6 0
v -0.2 0.7 0.3
v 0.1 0.7 0.3
v -0.3 0.7 0.2
v -0.2 0.7 0.2
v 0.1 0.7 0.2
v 0.2 0.7 0.2
v -0.3 0.7 0.1
v -0.2 0.7 0.1
v 0.1 0.7 0.1
v 0.2 0.7 0.1
v -0.1 0.8 -0.1
v 0 0.8 -0.1
v 0.1 0.8 -0.1
v -0.1 0.8 -0.2
v 0.1 0.8 -0.2
v -0.2 0.9 -0.1
v -0.1 0.9 -0.1
v -0.2 0.9 -0.2
v -0.1 0.9 -0.2
v -0.2 0.3 0.1
v -0.1 0.3 0.1
v 0 0.3 0.1
v 0.1 0.3 0.1
v -0.2 0.3 0
v -0.1 0.3 0
v 0 0.3 0
v 0.1 0.3 0
v -0.3 0.6 0.2
v -0.2 0.6 0.2
v 0.1 0.6 0.2
v 0.2 0.6 0.2
v -0.4 0.6 0.1
v -0.3 0.6 0.1
v -0.2 0.6 0.1
v 0.1 0.6 0.1
v 0.2 0.6 0.1
v 0.3 0.6 0.1
v -0.4 0.6 0
v -0.3 0.6 0
v 0.2 0.6 0
v 0.3 0.6 0
v -0.3 0.7 -0.1
v -0.2 0.7 -0.1
v 0.1 0.7 -0.1
v 0.2 0.7 -0.1
v -0.3 0.7 -0.2
v -0.2 0.7 -0.2
v 0.1 0.7 -0.2
v 0.2 0.7 -0.2
v -0.2 0.8 0.3
v 0.1 0.8 0.3
v -0.3 0.8 0.2
v -0.2 0.8 0.2
v 0.1 0.8 0.2
v 0.2 0.8 0.2
v -0.3 0.8 0.1
v -0.2 0.8 0.1
v 0.1 0.8 0.1
v 0.2 0.8 0.1
v -0.2 0.9 0.2
v 0.1 0.9 0.2
v -0.3 0.9 0.1
v -0.2 0.9 0.1
v 0.1 0.9 0.1
v 0.2 0.9 0.1
v -0.2 0.9 0
v 0.1 0.9 0
v -0.3 0.9 -0.1
v -0.2 0.9 -0.1
v 0.1 0.9 -0.1
v 0.2 0.9 -0.1
v -0.2 1 0.1
v 0.1 1 0.1
v -0.2 1 0
v 0.1 1 0
v -0.2 1 -0.1
v 0.1 1 -0.1
v -0.2 1 -0.2
v 0.1 1 -0.2

# faces
f 3/7/1 2/7/1 1/7/1
f 4/7/1 2/7/1 3/7/1
f 9/7/1 6/7/1 5/7/1
f 10/7/1 6/7/1 9/7/1
f 11/7/1 8/7/1 7/7/1
f 12/7/1 8/7/1 11/7/1
f 13/3/1 10/3/1 9/3/1
f 14/3/1 10/3/1 13/3/1
f 15/3/1 12/3/1 11/3/1
f 16/3/1 12/3/1 15/3/1
f 17/7/1 16/7/1 15/7/1
f 19/7/1 14/7/1 13/7/1
f 20/7/1 14/7/1 19/7/1
f 21/7/1 17/7/1 15/7/1
f 22/5/1 18/5/1 17/5/1
f 22/7/1 17/7/1 21/7/1
f 24/7/1 21/7/1 20/7/1
f 25/5/1 22/5/1 21/5/1
f 25/7/1 21/7/1 24/7/1
f 26/5/1 18/5/1 22/5/1
f 26/5/1 22/5/1 25/5/1
f 27/5/1 18/5/1 26/5/1
f 28/7/1 24/7/1 23/7/1
f 29/5/1 25/5/1 24/5/1
f 29/7/1 24/7/1 28/7/1
f 29/5/1 26/5/1 25/5/1
f 30/5/1 26/5/1 29/5/1
f 31/5/1 26/5/1 30/5/1
f 34/4/1 33/4/1 32/4/1
f 35/4/1 33/4/1 34/4/1
f 39/7/1 37/7/1 36/7/1
f 40/7/1 37/7/1 39/7/1
f 41/7/1 39/7/1 38/7/1
f 42/7/1 39/7/1 41/7/1
f 44/5/1 43/5/1 42/5/1
f 45/5/1 43/5/1 44/5/1
f 49/5/1 46/5/1 45/5/1
f 50/8/1 47/8/1 46/8/1
f 50/5/1 46/5/1 49/5/1
f 51/5/1 48/5/1 47/5/1
f 51/8/1 47/8/1 50/8/1
f 52/5/1 48/5/1 51/5/1
f 55/5/1 54/5/1 53/5/1
f 56/5/1 54/5/1 55/5/1
f 59/4/1 58/4/1 57/4/1
f 60/4/1 58/4/1 59/4/1
f 63/3/1 62/3/1 61/3/1
f 64/3/1 62/3/1 63/3/1
f 65/7/1 64/7/1 63/7/1
f 68/7/1 65/7/1 63/7/1
f 69/7/1 65/7/1 68/7/1
f 70/5/1 67/5/1 66/5/1
f 71/5/1 67/5/1 70/5/1
f 72/5/1 67/5/1 71/5/1
f 73/3/2 74/3/2 75/3/2
f 75/3/2 74/3/2 76/3/2
f 75/7/2 76/7/2 77/7/2
f 77/7/2 76/7/2 78/7/2
f 79/5/2 80/5/2 81/5/2
f 81/5/2 80/5/2 82/5/2
f 82/5/2 80/5/2 83/5/2
f 84/4/2 85/4/2 86/4/2
f 86/4/2 85/4/2 87/4/2
f 88/7/2 89/7/2 90/7/2
f 90/7/2 89/7/2 91/7/2
f 92/4/2 93/4/2 94/4/2
f 94/4/2 93/4/2 95/4/2
f 96/7/2 97/7/2 99/7/2
f 99/7/2 97/7/2 100/7/2
f 98/7/2 99/7/2 101/7/2
f 101/7/2 99/7/2 102/7/2
f 102/5/2 103/5/2 106/5/2
f 106/5/2 103/5/2 107/5/2
f 104/5/2 105/5/2 109/5/2
f 107/5/2 108/5/2 110/5/2
f 108/8/2 109/8/2 111/8/2
f 110/5/2 108/5/2 111/5/2
f 109/5/2 105/5/2 112/5/2
f 111/8/2 109/8/2 112/8/2
f 112/5/2 105/5/2 113/5/2
f 114/7/2 115/7/2 118/7/2
f 118/7/2 115/7/2 119/7/2
f 116/7/2 117/7/2 120/7/2
f 120/7/2 117/7/2 121/7/2
f 118/3/2 119/3/2 122/3/2
f 122/3/2 119/3/2 123/3/2
f 120/3/2 121/3/2 124/3/2
f 124/3/2 121/3/2 125/3/2
f 124/7/2 125/7/2 126/7/2
f 122/7/2 123/7/2 128/7/2
f 128/7/2 123/7/2 129/7/2
f 124/7/2 126/7/2 130/7/2
f 126/5/2 127/5/2 131/5/2
f 130/7/2 126/7/2 131/7/2
f 129/7/2 130/7/2 133/7/2
f 130/5/2 131/5/2 134/5/2
f 133/7/2 130/7/2 134/7/2
f 131/5/2 127/5/2 135/5/2
f 134/5/2 131/5/2 135/5/2
f 135/5/2 127/5/2 136/5/2
f 132/7/2 133/7/2 137/7/2
f 133/5/2 134/5/2 138/5/2
f 137/7/2 133/7/2 138/7/2
f 134/5/2 135/5/2 138/5/2
f 138/5/2 135/5/2 139/5/2
f 139/5/2 135/5/2 140/5/2
f 141/7/2 142/7/2 143/7/2
f 143/7/2 142/7/2 144/7/2
f 147/7/3 146/7/3 145/7/3
f 148/7/3 146/7/3 147/7/3
f 155/7/3 152/7/3 151/7/3
f 156/7/3 154/7/3 153/7/3
f 157/7/3 154/7/3 156/7/3
f 159/7/3 155/7/3 151/7/3
f 159/7/3 156/7/3 155/7/3
f 160/7/3 156/7/3 159/7/3
f 161/5/3 158/5/3 157/5/3
f 162/5/3 158/5/3 161/5/3
f 163/7/3 150/7/3 149/7/3
f 164/3/3 151/3/3 150/3/3
f 164/7/3 150/7/3 163/7/3
f 165/7/3 159/7/3 151/7/3
f 165/3/3 151/3/3 164/3/3
f 166/7/3 159/7/3 165/7/3
f 167/7/3 161/7/3 160/7/3
f 168/7/3 161/7/3 167/7/3
f 171/7/3 170/7/3 169/7/3
f 172/7/3 170/7/3 171/7/3
f 173/7/3 170/7/3 172/7/3
f 174/7/3 170/7/3 173/7/3
f 180/7/3 175/7/3 174/7/3
f 181/7/3 175/7/3 180/7/3
f 182/5/3 177/5/3 176/5/3
f 183/5/3 177/5/3 182/5/3
f 185/4/3 179/4/3 178/4/3
f 186/4/3 179/4/3 185/4/3
f 189/4/3 188/4/3 187/4/3
f 190/4/3 188/4/3 189/4/3
f 194/5/3 184/5/3 183/5/3
f 195/5/3 184/5/3 194/5/3
f 199/7/3 192/7/3 191/7/3
f 200/7/3 192/7/3 199/7/3
f 201/5/3 194/5/3 193/5/3
f 202/5/3 194/5/3 201/5/3
f 203/7/3 198/7/3 197/7/3
f 203/7/3 197/7/3 196/7/3
f 203/7/3 199/7/3 198/7/3
f 204/7/3 199/7/3 203/7/3
f 208/2/3 206/2/3 205/2/3
f 209/6/3 207/6/3 206/6/3
f 211/2/3 206/2/3 208/2/3
f 212/2/3 206/2/3 211/2/3
f 213/6/3 209/6/3 206/6/3
f 213/2/3 206/2/3 212/2/3
f 214/7/3 210/7/3 209/7/3
f 214/6/3 209/6/3 213/6/3
f 215/7/3 210/7/3 214/7/3
f 216/3/4 217/3/4 219/3/4
f 217/7/4 218/7/4 220/7/4
f 219/3/4 217/3/4 222/3/4
f 222/3/4 217/3/4 223/3/4
f 220/7/4 221/7/4 224/7/4
f 223/3/4 217/3/4 224/3/4
f 217/7/4 220/7/4 224/7/4
f 224/7/4 221/7/4 225/7/4
f 226/7/4 227/7/4 228/7/4
f 228/7/4 227/7/4 229/7/4
f 229/7/4 227/7/4 230/7/4
f 230/7/4 227/7/4 231/7/4
f 232/4/4 233/4/4 234/4/4
f 234/4/4 233/4/4 235/4/4
f 236/4/4 237/4/4 238/4/4
f 238/4/4 237/4/4 239/4/4
f 240/7/4 241/7/4 244/7/4
f 242/7/4 243/7/4 244/7/4
f 241/7/4 242/7/4 244/7/4
f 244/7/4 243/7/4 245/7/4
f 246/7/4 247/7/4 252/7/4
f 247/3/4 248/3/4 252/3/4
f 248/7/4 249/7/4 253/7/4
f 252/3/4 248/3/4 253/3/4
f 253/7/4 249/7/4 254/7/4
f 250/5/4 251/5/4 256/5/4
f 256/5/4 251/5/4 257/5/4
f 257/5/4 251/5/4 258/5/4
f 255/1/4 256/1/4 259/1/4
f 256/8/4 257/8/4 259/8/4
f 257/1/4 258/1/4 260/1/4
f 259/8/4 257/8/4 260/8/4
f 260/1/4 258/1/4 261/1/4
f 255/1/4 259/1/4 262/1/4
f 259/1/4 260/1/4 262/1/4
f 262/1/4 260/1/4 263/1/4
f 246/7/4 252/7/4 264/7/4
f 252/2/4 253/2/4 264/2/4
f 253/6/4 254/6/4 265/6/4
f 264/2/4 253/2/4 265/2/4
f 254/7/4 255/7/4 266/7/4
f 265/6/4 254/6/4 266/6/4
f 255/1/4 262/1/4 267/1/4
f 266/7/4 255/7/4 267/7/4
f 262/8/4 263/8/4 268/8/4
f 267/1/4 262/1/4 268/1/4
f 268/8/4 263/8/4 269/8/4
f 246/7/4 264/7/4 271/7/4
f 264/3/4 265/3/4 272/3/4
f 271/7/4 264/7/4 272/7/4
f 265/7/4 266/7/4 273/7/4
f 272/3/4 265/3/4 273/3/4
f 273/7/4 266/7/4 274/7/4
f 268/5/4 269/5/4 275/5/4
f 269/5/4 270/5/4 275/5/4
f 275/5/4 270/5/4 276/5/4
f 277/5/4 278/5/4 279/5/4
f 279/5/4 278/5/4 280/5/4
f 281/5/4 282/5/4 284/5/4
f 283/5/4 284/5/4 287/5/4
f 284/5/4 282/5/4 288/5/4
f 287/5/4 284/5/4 288/5/4
f 285/5/4 286/5/4 289/5/4
f 289/5/4 286/5/4 290/5/4
f 295/4/5 292/4/5 291/4/5
f 296/4/5 292/4/5 295/4/5
f 297/4/5 294/4/5 293/4/5
f 298/4/5 294/4/5 297/4/5
f 302/7/5 300/7/5 299/7/5
f 303/7/5 300/7/5 302/7/5
f 304/7/5 300/7/5 303/7/5
f 305/7/5 300/7/5 304/7/5
f 306/7/5 300/7/5 305/7/5
f 307/7/5 300/7/5 306/7/5
f 309/7/5 302/7/5 301/7/5
f 309/7/5 303/7/5 302/7/5
f 310/7/5 303/7/5 309/7/5
f 311/7/5 303/7/5 310/7/5
f 312/4/5 305/4/5 304/4/5
f 313/4/5 305/4/5 312/4/5
f 314/7/5 308/7/5 307/7/5
f 314/7/5 307/7/5 306/7/5
f 315/7/5 308/7/5 314/7/5
f 316/7/5 308/7/5 315/7/5
f 317/7/5 313/7/5 312/7/5
f 317/7/5 312/7/5 311/7/5
f 317/7/5 315/7/5 314/7/5
f 317/7/5 314/7/5 313/7/5
f 317/7/5 311/7/5 310/7/5
f 318/7/5 315/7/5 317/7/5
f 321/7/5 320/7/5 319/7/5
f 322/7/5 320/7/5 321/7/5
f 327/5/5 324/5/5 323/5/5
f 328/5/5 324/5/5 327/5/5
f 329/5/5 326/5/5 325/5/5
f 330/5/5 326/5/5 329/5/5
f 333/1/5 332/1/5 331/1/5
f 334/1/5 332/1/5 333/1/5
f 338/7/5 336/7/5 335/7/5
f 339/7/5 336/7/5 338/7/5
f 341/7/5 338/7/5 337/7/5
f 342/7/5 338/7/5 341/7/5
f 343/7/5 340/7/5 339/7/5
f 344/7/5 340/7/5 343/7/5
f 348/5/5 346/5/5 345/5/5
f 348/5/5 347/5/5 346/5/5
f 349/5/5 347/5/5 348/5/5
f 352/5/5 351/5/5 350/5/5
f 353/5/5 351/5/5 352/5/5
f 354/7/6 355/7/6 358/7/6
f 355/4/6 356/4/6 359/4/6
f 358/7/6 355/7/6 359/7/6
f 356/7/6 357/7/6 360/7/6
f 359/4/6 356/4/6 360/4/6
f 360/7/6 357/7/6 361/7/6
f 362/7/6 363/7/6 367/7/6
f 367/7/6 363/7/6 368/7/6
f 364/7/6 365/7/6 369/7/6
f 369/7/6 365/7/6 370/7/6
f 366/7/6 367/7/6 372/7/6
f 372/7/6 367/7/6 373/7/6
f 370/7/6 371/7/6 374/7/6
f 374/7/6 371/7/6 375/7/6
f 376/5/6 377/5/6 380/5/6
f 380/5/6 377/5/6 381/5/6
f 378/5/6 379/5/6 382/5/6
f 382/5/6 379/5/6 383/5/6
f 384/7/6 385/7/6 387/7/6
f 387/7/6 385/7/6 388/7/6
f 386/7/6 387/7/6 390/7/6
f 390/7/6 387/7/6 391/7/6
f 388/7/6 389/7/6 392/7/6
f 392/7/6 389/7/6 393/7/6
f 394/5/6 395/5/6 397/5/6
f 397/5/6 395/5/6 398/5/6
f 396/5/6 397/5/6 400/5/6
f 398/5/6 399/5/6 401/5/6
f 396/5/6 400/5/6 402/5/6
f 402/5/6 400/5/6 403/5/6
f 401/5/6 399/5/6 404/5/6
f 404/5/6 399/5/6 405/5/6
f 406/5/6 407/5/6 408/5/6
f 408/5/6 407/5/6 409/5/6
f 408/8/6 409/8/6 410/8/6
f 410/8/6 409/8/6 411/8/6
f 410/5/6 411/5/6 412/5/6
f 412/5/6 411/5/6 413/5/6
