{"asset":{"version":"2.0","generator":"Blockbench 3.7.5 glTF exporter"},"scenes":[{"nodes":[0,1,2,3,4,5,6,7,8,9,10,11,12,13,14],"name":"blockbench_export"}],"scene":0,"nodes":[{"translation":[-2,5,-1],"name":"1a67e836-5eae-4060-2d4b-3c93ed1bf8f1","mesh":0},{"translation":[4,5,-1],"name":"7dfe7555-384c-278d-3985-0550f2d4ff53","mesh":1},{"rotation":[0.19509032201612825,0,0,0.9807852804032304],"translation":[0,10,-2],"name":"5991577c-ea81-e879-b4c3-14de8f358da6","mesh":2},{"translation":[1,10,0],"name":"6e625025-9810-17af-d018-d77bb23df2aa","mesh":3},{"rotation":[0.08715574274765817,0,0,0.9961946980917455],"translation":[0,10,0],"name":"91258086-39fb-2993-a7a6-c7f280652575","mesh":4},{"translation":[0,7,0],"name":"40407bcd-51a3-52c7-c24a-c8d7362a4662","mesh":5},{"translation":[3,8,1],"name":"d59a9f2a-15a0-7d81-f510-113059ee2889","mesh":6},{"translation":[-1,8,1],"name":"477f24b9-59e8-1680-93d2-26a82dbf55fc","mesh":7},{"translation":[0,8,2],"name":"51b061ed-06cc-91f2-0bb3-99204cdb723c","mesh":8},{"translation":[3,7,0],"name":"b14caf98-78d7-832a-ca9c-5b067ff472ba","mesh":9},{"translation":[-1,7,0],"name":"d48012bd-84d4-49fa-d2cb-4d199878f75f","mesh":10},{"rotation":[0,-0.7071067811865475,0,0.7071067811865476],"translation":[0,7,1],"name":"6918ad3e-bafe-54bf-cdbf-9b44e6800acd","mesh":11},{"translation":[2,2,0],"name":"68496a26-4264-b92a-bf1b-17ece810b4e7","mesh":12},{"translation":[0,0,-1],"name":"9221cd6f-e6c4-0342-a092-c17fa54e3ef9","mesh":13},{"translation":[2,0,0],"name":"36f53dc7-f7f6-6c29-49df-f7803e5f1e55","mesh":14}],"bufferViews":[{"buffer":0,"byteOffset":0,"byteLength":432,"target":34962,"byteStride":12},{"buffer":0,"byteOffset":432,"byteLength":432,"target":34962,"byteStride":12},{"buffer":0,"byteOffset":864,"byteLength":288,"target":34962,"byteStride":8},{"buffer":0,"byteOffset":1152,"byteLength":432,"target":34962,"byteStride":12},{"buffer":0,"byteOffset":1584,"byteLength":432,"target":34962,"byteStride":12},{"buffer":0,"byteOffset":2016,"byteLength":288,"target":34962,"byteStride":8},{"buffer":0,"byteOffset":2304,"byteLength":432,"target":34962,"byteStride":12},{"buffer":0,"byteOffset":2736,"byteLength":432,"target":34962,"byteStride":12},{"buffer":0,"byteOffset":3168,"byteLength":288,"target":34962,"byteStride":8},{"buffer":0,"byteOffset":3456,"byteLength":432,"target":34962,"byteStride":12},{"buffer":0,"byteOffset":3888,"byteLength":432,"target":34962,"byteStride":12},{"buffer":0,"byteOffset":4320,"byteLength":288,"target":34962,"byteStride":8},{"buffer":0,"byteOffset":4608,"byteLength":432,"target":34962,"byteStride":12},{"buffer":0,"byteOffset":5040,"byteLength":432,"target":34962,"byteStride":12},{"buffer":0,"byteOffset":5472,"byteLength":288,"target":34962,"byteStride":8},{"buffer":0,"byteOffset":5760,"byteLength":432,"target":34962,"byteStride":12},{"buffer":0,"byteOffset":6192,"byteLength":432,"target":34962,"byteStride":12},{"buffer":0,"byteOffset":6624,"byteLength":288,"target":34962,"byteStride":8},{"buffer":0,"byteOffset":6912,"byteLength":432,"target":34962,"byteStride":12},{"buffer":0,"byteOffset":7344,"byteLength":432,"target":34962,"byteStride":12},{"buffer":0,"byteOffset":7776,"byteLength":288,"target":34962,"byteStride":8},{"buffer":0,"byteOffset":8064,"byteLength":432,"target":34962,"byteStride":12},{"buffer":0,"byteOffset":8496,"byteLength":432,"target":34962,"byteStride":12},{"buffer":0,"byteOffset":8928,"byteLength":288,"target":34962,"byteStride":8},{"buffer":0,"byteOffset":9216,"byteLength":432,"target":34962,"byteStride":12},{"buffer":0,"byteOffset":9648,"byteLength":432,"target":34962,"byteStride":12},{"buffer":0,"byteOffset":10080,"byteLength":288,"target":34962,"byteStride":8},{"buffer":0,"byteOffset":10368,"byteLength":432,"target":34962,"byteStride":12},{"buffer":0,"byteOffset":10800,"byteLength":432,"target":34962,"byteStride":12},{"buffer":0,"byteOffset":11232,"byteLength":288,"target":34962,"byteStride":8},{"buffer":0,"byteOffset":11520,"byteLength":432,"target":34962,"byteStride":12},{"buffer":0,"byteOffset":11952,"byteLength":432,"target":34962,"byteStride":12},{"buffer":0,"byteOffset":12384,"byteLength":288,"target":34962,"byteStride":8},{"buffer":0,"byteOffset":12672,"byteLength":432,"target":34962,"byteStride":12},{"buffer":0,"byteOffset":13104,"byteLength":432,"target":34962,"byteStride":12},{"buffer":0,"byteOffset":13536,"byteLength":288,"target":34962,"byteStride":8},{"buffer":0,"byteOffset":13824,"byteLength":432,"target":34962,"byteStride":12},{"buffer":0,"byteOffset":14256,"byteLength":432,"target":34962,"byteStride":12},{"buffer":0,"byteOffset":14688,"byteLength":288,"target":34962,"byteStride":8},{"buffer":0,"byteOffset":14976,"byteLength":432,"target":34962,"byteStride":12},{"buffer":0,"byteOffset":15408,"byteLength":432,"target":34962,"byteStride":12},{"buffer":0,"byteOffset":15840,"byteLength":288,"target":34962,"byteStride":8},{"buffer":0,"byteOffset":16128,"byteLength":432,"target":34962,"byteStride":12},{"buffer":0,"byteOffset":16560,"byteLength":432,"target":34962,"byteStride":12},{"buffer":0,"byteOffset":16992,"byteLength":288,"target":34962,"byteStride":8}],"buffers":[{"byteLength":17280,"uri":"data:application/octet-stream;base64,"}],"accessors":[{"bufferView":0,"componentType":5126,"count":36,"max":[1,2,1],"min":[0,-3,0],"type":"VEC3"},{"bufferView":1,"componentType":5126,"count":36,"max":[1,1,1],"min":[-1,-1,-1],"type":"VEC3"},{"bufferView":2,"componentType":5126,"count":36,"max":[0.37451171875,0.53076171875],"min":[0.25048828125,0.34423828125],"type":"VEC2"},{"bufferView":3,"componentType":5126,"count":36,"max":[1,2,1],"min":[0,-3,0],"type":"VEC3"},{"bufferView":4,"componentType":5126,"count":36,"max":[1,1,1],"min":[-1,-1,-1],"type":"VEC3"},{"bufferView":5,"componentType":5126,"count":36,"max":[0.49951171875,0.49951171875],"min":[0.37548828125,0.31298828125],"type":"VEC2"},{"bufferView":6,"componentType":5126,"count":36,"max":[3,1,1],"min":[0,0,0],"type":"VEC3"},{"bufferView":7,"componentType":5126,"count":36,"max":[1,1,1],"min":[-1,-1,-1],"type":"VEC3"},{"bufferView":8,"componentType":5126,"count":36,"max":[0.65576171875,0.99951171875],"min":[0.40673828125,0.93798828125],"type":"VEC2"},{"bufferView":9,"componentType":5126,"count":36,"max":[2,1,1],"min":[-2,0,-1],"type":"VEC3"},{"bufferView":10,"componentType":5126,"count":36,"max":[1,1,1],"min":[-1,-1,-1],"type":"VEC3"},{"bufferView":11,"componentType":5126,"count":36,"max":[0.68701171875,0.74951171875],"min":[0.31298828125,0.65673828125],"type":"VEC2"},{"bufferView":12,"componentType":5126,"count":36,"max":[3,1,2],"min":[-1,0,0],"type":"VEC3"},{"bufferView":13,"componentType":5126,"count":36,"max":[1,1,1],"min":[-1,-1,-1],"type":"VEC3"},{"bufferView":14,"componentType":5126,"count":36,"max":[0.74951171875,0.59326171875],"min":[0.37548828125,0.50048828125],"type":"VEC2"},{"bufferView":15,"componentType":5126,"count":36,"max":[3,3,2],"min":[0,0,-2],"type":"VEC3"},{"bufferView":16,"componentType":5126,"count":36,"max":[1,1,1],"min":[-1,-1,-1],"type":"VEC3"},{"bufferView":17,"componentType":5126,"count":36,"max":[0.43701171875,0.74951171875],"min":[0.00048828125,0.53173828125],"type":"VEC2"},{"bufferView":18,"componentType":5126,"count":36,"max":[1,1,1],"min":[0,0,0],"type":"VEC3"},{"bufferView":19,"componentType":5126,"count":36,"max":[1,1,1],"min":[-1,-1,-1],"type":"VEC3"},{"bufferView":20,"componentType":5126,"count":36,"max":[0.62451171875,0.93701171875],"min":[0.50048828125,0.87548828125],"type":"VEC2"},{"bufferView":21,"componentType":5126,"count":36,"max":[1,1,1],"min":[0,0,0],"type":"VEC3"},{"bufferView":22,"componentType":5126,"count":36,"max":[1,1,1],"min":[-1,-1,-1],"type":"VEC3"},{"bufferView":23,"componentType":5126,"count":36,"max":[0.62451171875,0.87451171875],"min":[0.50048828125,0.81298828125],"type":"VEC2"},{"bufferView":24,"componentType":5126,"count":36,"max":[3,1,1],"min":[0,0,0],"type":"VEC3"},{"bufferView":25,"componentType":5126,"count":36,"max":[1,1,1],"min":[-1,-1,-1],"type":"VEC3"},{"bufferView":26,"componentType":5126,"count":36,"max":[0.68701171875,0.65576171875],"min":[0.43798828125,0.59423828125],"type":"VEC2"},{"bufferView":27,"componentType":5126,"count":36,"max":[1,1,1],"min":[0,0,0],"type":"VEC3"},{"bufferView":28,"componentType":5126,"count":36,"max":[1,1,1],"min":[-1,-1,-1],"type":"VEC3"},{"bufferView":29,"componentType":5126,"count":36,"max":[0.62451171875,0.81201171875],"min":[0.50048828125,0.75048828125],"type":"VEC2"},{"bufferView":30,"componentType":5126,"count":36,"max":[1,1,1],"min":[0,0,0],"type":"VEC3"},{"bufferView":31,"componentType":5126,"count":36,"max":[1,1,1],"min":[-1,-1,-1],"type":"VEC3"},{"bufferView":32,"componentType":5126,"count":36,"max":[0.12451171875,0.40576171875],"min":[0.00048828125,0.34423828125],"type":"VEC2"},{"bufferView":33,"componentType":5126,"count":36,"max":[1,1,0],"min":[0,0,-3],"type":"VEC3"},{"bufferView":34,"componentType":5126,"count":36,"max":[1,1,1],"min":[-1,-1,-1],"type":"VEC3"},{"bufferView":35,"componentType":5126,"count":36,"max":[0.24951171875,0.53076171875],"min":[0.00048828125,0.40673828125],"type":"VEC2"},{"bufferView":36,"componentType":5126,"count":36,"max":[2,5,1],"min":[-3,0,-2],"type":"VEC3"},{"bufferView":37,"componentType":5126,"count":36,"max":[1,1,1],"min":[-1,-1,-1],"type":"VEC3"},{"bufferView":38,"componentType":5126,"count":36,"max":[0.49951171875,0.99951171875],"min":[0.00048828125,0.75048828125],"type":"VEC2"},{"bufferView":39,"componentType":5126,"count":36,"max":[1,2,1],"min":[0,0,0],"type":"VEC3"},{"bufferView":40,"componentType":5126,"count":36,"max":[1,1,1],"min":[-1,-1,-1],"type":"VEC3"},{"bufferView":41,"componentType":5126,"count":36,"max":[0.12451171875,0.74951171875],"min":[0.00048828125,0.65673828125],"type":"VEC2"},{"bufferView":42,"componentType":5126,"count":36,"max":[1,2,0],"min":[0,0,-1],"type":"VEC3"},{"bufferView":43,"componentType":5126,"count":36,"max":[1,1,1],"min":[-1,-1,-1],"type":"VEC3"},{"bufferView":44,"componentType":5126,"count":36,"max":[0.62451171875,0.49951171875],"min":[0.50048828125,0.40673828125],"type":"VEC2"}],"materials":[{"pbrMetallicRoughness":{"metallicFactor":0,"roughnessFactor":1,"baseColorTexture":{"index":0}},"alphaMode":"MASK","alphaCutoff":0.05,"doubleSided":true,"name":"texture"}],"textures":[{"sampler":0,"source":0,"name":"texture"}],"samplers":[{"magFilter":9728,"minFilter":9728,"wrapS":33071,"wrapT":33071}],"images":[{"mimeType":"image/png","uri":"data:image/png;base64,"}],"meshes":[{"primitives":[{"mode":4,"attributes":{"POSITION":0,"NORMAL":1,"TEXCOORD_0":2},"material":0}]},{"primitives":[{"mode":4,"attributes":{"POSITION":3,"NORMAL":4,"TEXCOORD_0":5},"material":0}]},{"primitives":[{"mode":4,"attributes":{"POSITION":6,"NORMAL":7,"TEXCOORD_0":8},"material":0}]},{"primitives":[{"mode":4,"attributes":{"POSITION":9,"NORMAL":10,"TEXCOORD_0":11},"material":0}]},{"primitives":[{"mode":4,"attributes":{"POSITION":12,"NORMAL":13,"TEXCOORD_0":14},"material":0}]},{"primitives":[{"mode":4,"attributes":{"POSITION":15,"NORMAL":16,"TEXCOORD_0":17},"material":0}]},{"primitives":[{"mode":4,"attributes":{"POSITION":18,"NORMAL":19,"TEXCOORD_0":20},"material":0}]},{"primitives":[{"mode":4,"attributes":{"POSITION":21,"NORMAL":22,"TEXCOORD_0":23},"material":0}]},{"primitives":[{"mode":4,"attributes":{"POSITION":24,"NORMAL":25,"TEXCOORD_0":26},"material":0}]},{"primitives":[{"mode":4,"attributes":{"POSITION":27,"NORMAL":28,"TEXCOORD_0":29},"material":0}]},{"primitives":[{"mode":4,"attributes":{"POSITION":30,"NORMAL":31,"TEXCOORD_0":32},"material":0}]},{"primitives":[{"mode":4,"attributes":{"POSITION":33,"NORMAL":34,"TEXCOORD_0":35},"material":0}]},{"primitives":[{"mode":4,"attributes":{"POSITION":36,"NORMAL":37,"TEXCOORD_0":38},"material":0}]},{"primitives":[{"mode":4,"attributes":{"POSITION":39,"NORMAL":40,"TEXCOORD_0":41},"material":0}]},{"primitives":[{"mode":4,"attributes":{"POSITION":42,"NORMAL":43,"TEXCOORD_0":44},"material":0}]}]}