{"asset":{"version":"2.0","generator":"Blockbench 3.7.5 glTF exporter"},"scenes":[{"nodes":[5,11,17,23,24,25,26,27,28],"name":"blockbench_export"}],"scene":0,"nodes":[{"translation":[-6,0,0],"name":"3101109a-c87e-c57b-2fdf-25cc15448346","mesh":0},{"rotation":[0,0,-0.3624380382837016,0.9320078692827986],"translation":[-6,1,0],"name":"82df1536-d9ba-ece0-b29b-eec08d65c200","mesh":1},{"rotation":[0,0,0.7071067811865475,0.7071067811865476],"translation":[0,2,0],"name":"8de3d8db-63d4-7698-9f00-0642bd82d568","mesh":2},{"rotation":[0,0,0.3624380382837016,0.9320078692827986],"translation":[0,1,0],"name":"b6e9647b-fe1f-a116-84c7-5542d471534c","mesh":3},{"rotation":[0,0,-0.7071067811865475,0.7071067811865476],"name":"0186d6f8-9adb-abde-4780-152a25d66ab2","mesh":4},{"translation":[14,2,-8],"name":"bone4","children":[0,1,2,3,4]},{"translation":[-6,0,0],"name":"02dcac36-ba4e-7769-b0bf-563c482e6acb","mesh":5},{"rotation":[0,0,-0.3624380382837016,0.9320078692827986],"translation":[-6,1,0],"name":"16e560ce-8f0a-84d1-8dee-223ae54dd941","mesh":6},{"rotation":[0,0,0.7071067811865475,0.7071067811865476],"translation":[0,2,0],"name":"6a6d742a-6a19-a466-9766-e82dcdc1053d","mesh":7},{"rotation":[0,0,0.3624380382837016,0.9320078692827986],"translation":[0,1,0],"name":"8ea38902-9a1e-54cf-427f-c164aae9f38b","mesh":8},{"rotation":[0,0,-0.7071067811865475,0.7071067811865476],"name":"a4b2b7d1-7bdc-1970-13e7-b89393cc890f","mesh":9},{"translation":[14,2,7],"name":"bone3","children":[6,7,8,9,10]},{"translation":[-6,0,0],"name":"085a29a3-3bc7-cade-d6a9-31f64a847ccc","mesh":10},{"rotation":[0,0,-0.3624380382837016,0.9320078692827986],"translation":[-6,1,0],"name":"0743d854-3bd8-817a-5b17-d096941ece1f","mesh":11},{"rotation":[0,0,0.7071067811865475,0.7071067811865476],"translation":[0,2,0],"name":"eb0f5462-de4f-3f4a-9b78-c19a8cb4bb70","mesh":12},{"rotation":[0,0,0.3624380382837016,0.9320078692827986],"translation":[0,1,0],"name":"44a576c6-a963-603d-4c6a-140d5e6247a2","mesh":13},{"rotation":[0,0,-0.7071067811865475,0.7071067811865476],"name":"a4bdfa1d-5618-dd04-2f1b-d96a45a3d823","mesh":14},{"translation":[-8,2,7],"name":"bone2","children":[12,13,14,15,16]},{"translation":[-6,0,0],"name":"254ff8f6-a023-e306-4852-8d712ed17cb4","mesh":15},{"rotation":[0,0,-0.3624380382837016,0.9320078692827986],"translation":[-6,1,0],"name":"8b654803-fe70-cf57-cd70-e029903e18ab","mesh":16},{"rotation":[0,0,0.7071067811865475,0.7071067811865476],"translation":[0,2,0],"name":"7f2b2a30-978c-626e-0366-0113867ed386","mesh":17},{"rotation":[0,0,0.3624380382837016,0.9320078692827986],"translation":[0,1,0],"name":"746dd801-a241-e09b-03a7-1a0e1c851526","mesh":18},{"rotation":[0,0,-0.7071067811865475,0.7071067811865476],"name":"daa066b7-f429-e423-5e7a-8d6584710ebf","mesh":19},{"translation":[-8,2,-8],"name":"bone","children":[18,19,20,21,22]},{"translation":[-20,1,0],"name":"e6bb445d-5bb0-5911-325b-f4fa1b00fa59","mesh":20},{"translation":[13,1,0],"name":"dd07db27-739c-9ff6-0acc-8714c3601e76","mesh":21},{"translation":[7,1,0],"name":"f8338c91-ec45-2aac-e893-492081e6c09d","mesh":22},{"translation":[-15,1,0],"name":"ab290e59-c046-bb66-386f-c56f9912bdbf","mesh":23},{"translation":[0,1,-1],"name":"192faa85-9df9-e083-b319-1fda65459f84","mesh":24}],"bufferViews":[{"buffer":0,"byteOffset":0,"byteLength":432,"target":34962,"byteStride":12},{"buffer":0,"byteOffset":432,"byteLength":432,"target":34962,"byteStride":12},{"buffer":0,"byteOffset":864,"byteLength":288,"target":34962,"byteStride":8},{"buffer":0,"byteOffset":1152,"byteLength":432,"target":34962,"byteStride":12},{"buffer":0,"byteOffset":1584,"byteLength":432,"target":34962,"byteStride":12},{"buffer":0,"byteOffset":2016,"byteLength":288,"target":34962,"byteStride":8},{"buffer":0,"byteOffset":2304,"byteLength":432,"target":34962,"byteStride":12},{"buffer":0,"byteOffset":2736,"byteLength":432,"target":34962,"byteStride":12},{"buffer":0,"byteOffset":3168,"byteLength":288,"target":34962,"byteStride":8},{"buffer":0,"byteOffset":3456,"byteLength":432,"target":34962,"byteStride":12},{"buffer":0,"byteOffset":3888,"byteLength":432,"target":34962,"byteStride":12},{"buffer":0,"byteOffset":4320,"byteLength":288,"target":34962,"byteStride":8},{"buffer":0,"byteOffset":4608,"byteLength":432,"target":34962,"byteStride":12},{"buffer":0,"byteOffset":5040,"byteLength":432,"target":34962,"byteStride":12},{"buffer":0,"byteOffset":5472,"byteLength":288,"target":34962,"byteStride":8},{"buffer":0,"byteOffset":5760,"byteLength":432,"target":34962,"byteStride":12},{"buffer":0,"byteOffset":6192,"byteLength":432,"target":34962,"byteStride":12},{"buffer":0,"byteOffset":6624,"byteLength":288,"target":34962,"byteStride":8},{"buffer":0,"byteOffset":6912,"byteLength":432,"target":34962,"byteStride":12},{"buffer":0,"byteOffset":7344,"byteLength":432,"target":34962,"byteStride":12},{"buffer":0,"byteOffset":7776,"byteLength":288,"target":34962,"byteStride":8},{"buffer":0,"byteOffset":8064,"byteLength":432,"target":34962,"byteStride":12},{"buffer":0,"byteOffset":8496,"byteLength":432,"target":34962,"byteStride":12},{"buffer":0,"byteOffset":8928,"byteLength":288,"target":34962,"byteStride":8},{"buffer":0,"byteOffset":9216,"byteLength":432,"target":34962,"byteStride":12},{"buffer":0,"byteOffset":9648,"byteLength":432,"target":34962,"byteStride":12},{"buffer":0,"byteOffset":10080,"byteLength":288,"target":34962,"byteStride":8},{"buffer":0,"byteOffset":10368,"byteLength":432,"target":34962,"byteStride":12},{"buffer":0,"byteOffset":10800,"byteLength":432,"target":34962,"byteStride":12},{"buffer":0,"byteOffset":11232,"byteLength":288,"target":34962,"byteStride":8},{"buffer":0,"byteOffset":11520,"byteLength":432,"target":34962,"byteStride":12},{"buffer":0,"byteOffset":11952,"byteLength":432,"target":34962,"byteStride":12},{"buffer":0,"byteOffset":12384,"byteLength":288,"target":34962,"byteStride":8},{"buffer":0,"byteOffset":12672,"byteLength":432,"target":34962,"byteStride":12},{"buffer":0,"byteOffset":13104,"byteLength":432,"target":34962,"byteStride":12},{"buffer":0,"byteOffset":13536,"byteLength":288,"target":34962,"byteStride":8},{"buffer":0,"byteOffset":13824,"byteLength":432,"target":34962,"byteStride":12},{"buffer":0,"byteOffset":14256,"byteLength":432,"target":34962,"byteStride":12},{"buffer":0,"byteOffset":14688,"byteLength":288,"target":34962,"byteStride":8},{"buffer":0,"byteOffset":14976,"byteLength":432,"target":34962,"byteStride":12},{"buffer":0,"byteOffset":15408,"byteLength":432,"target":34962,"byteStride":12},{"buffer":0,"byteOffset":15840,"byteLength":288,"target":34962,"byteStride":8},{"buffer":0,"byteOffset":16128,"byteLength":432,"target":34962,"byteStride":12},{"buffer":0,"byteOffset":16560,"byteLength":432,"target":34962,"byteStride":12},{"buffer":0,"byteOffset":16992,"byteLength":288,"target":34962,"byteStride":8},{"buffer":0,"byteOffset":17280,"byteLength":432,"target":34962,"byteStride":12},{"buffer":0,"byteOffset":17712,"byteLength":432,"target":34962,"byteStride":12},{"buffer":0,"byteOffset":18144,"byteLength":288,"target":34962,"byteStride":8},{"buffer":0,"byteOffset":18432,"byteLength":432,"target":34962,"byteStride":12},{"buffer":0,"byteOffset":18864,"byteLength":432,"target":34962,"byteStride":12},{"buffer":0,"byteOffset":19296,"byteLength":288,"target":34962,"byteStride":8},{"buffer":0,"byteOffset":19584,"byteLength":432,"target":34962,"byteStride":12},{"buffer":0,"byteOffset":20016,"byteLength":432,"target":34962,"byteStride":12},{"buffer":0,"byteOffset":20448,"byteLength":288,"target":34962,"byteStride":8},{"buffer":0,"byteOffset":20736,"byteLength":432,"target":34962,"byteStride":12},{"buffer":0,"byteOffset":21168,"byteLength":432,"target":34962,"byteStride":12},{"buffer":0,"byteOffset":21600,"byteLength":288,"target":34962,"byteStride":8},{"buffer":0,"byteOffset":21888,"byteLength":432,"target":34962,"byteStride":12},{"buffer":0,"byteOffset":22320,"byteLength":432,"target":34962,"byteStride":12},{"buffer":0,"byteOffset":22752,"byteLength":288,"target":34962,"byteStride":8},{"buffer":0,"byteOffset":23040,"byteLength":432,"target":34962,"byteStride":12},{"buffer":0,"byteOffset":23472,"byteLength":432,"target":34962,"byteStride":12},{"buffer":0,"byteOffset":23904,"byteLength":288,"target":34962,"byteStride":8},{"buffer":0,"byteOffset":24192,"byteLength":432,"target":34962,"byteStride":12},{"buffer":0,"byteOffset":24624,"byteLength":432,"target":34962,"byteStride":12},{"buffer":0,"byteOffset":25056,"byteLength":288,"target":34962,"byteStride":8},{"buffer":0,"byteOffset":25344,"byteLength":432,"target":34962,"byteStride":12},{"buffer":0,"byteOffset":25776,"byteLength":432,"target":34962,"byteStride":12},{"buffer":0,"byteOffset":26208,"byteLength":288,"target":34962,"byteStride":8},{"buffer":0,"byteOffset":26496,"byteLength":432,"target":34962,"byteStride":12},{"buffer":0,"byteOffset":26928,"byteLength":432,"target":34962,"byteStride":12},{"buffer":0,"byteOffset":27360,"byteLength":288,"target":34962,"byteStride":8},{"buffer":0,"byteOffset":27648,"byteLength":432,"target":34962,"byteStride":12},{"buffer":0,"byteOffset":28080,"byteLength":432,"target":34962,"byteStride":12},{"buffer":0,"byteOffset":28512,"byteLength":288,"target":34962,"byteStride":8}],"buffers":[{"byteLength":28800,"uri":"data:application/octet-stream;base64,"}],"accessors":[{"bufferView":0,"componentType":5126,"count":36,"max":[1,2,1],"min":[0,0,0],"type":"VEC3"},{"bufferView":1,"componentType":5126,"count":36,"max":[1,1,1],"min":[-1,-1,-1],"type":"VEC3"},{"bufferView":2,"componentType":5126,"count":36,"max":[0.0936279296875,0.9608154296875],"min":[0.0626220703125,0.9376220703125],"type":"VEC2"},{"bufferView":3,"componentType":5126,"count":36,"max":[1,3,1],"min":[0,-1,0],"type":"VEC3"},{"bufferView":4,"componentType":5126,"count":36,"max":[1,1,1],"min":[-1,-1,-1],"type":"VEC3"},{"bufferView":5,"componentType":5126,"count":36,"max":[0.0623779296875,0.9217529296875],"min":[0.0313720703125,0.8829345703125],"type":"VEC2"},{"bufferView":6,"componentType":5126,"count":36,"max":[1,5,1],"min":[0,0,0],"type":"VEC3"},{"bufferView":7,"componentType":5126,"count":36,"max":[1,1,1],"min":[-1,-1,-1],"type":"VEC3"},{"bufferView":8,"componentType":5126,"count":36,"max":[0.0311279296875,0.9998779296875],"min":[0.0001220703125,0.9532470703125],"type":"VEC2"},{"bufferView":9,"componentType":5126,"count":36,"max":[1,2,1],"min":[0,-2,0],"type":"VEC3"},{"bufferView":10,"componentType":5126,"count":36,"max":[1,1,1],"min":[-1,-1,-1],"type":"VEC3"},{"bufferView":11,"componentType":5126,"count":36,"max":[0.0858154296875,0.9998779296875],"min":[0.0548095703125,0.9610595703125],"type":"VEC2"},{"bufferView":12,"componentType":5126,"count":36,"max":[0,1,1],"min":[-2,0,0],"type":"VEC3"},{"bufferView":13,"componentType":5126,"count":36,"max":[1,1,1],"min":[-1,-1,-1],"type":"VEC3"},{"bufferView":14,"componentType":5126,"count":36,"max":[0.1014404296875,0.8905029296875],"min":[0.0548095703125,0.8751220703125],"type":"VEC2"},{"bufferView":15,"componentType":5126,"count":36,"max":[1,2,1],"min":[0,0,0],"type":"VEC3"},{"bufferView":16,"componentType":5126,"count":36,"max":[1,1,1],"min":[-1,-1,-1],"type":"VEC3"},{"bufferView":17,"componentType":5126,"count":36,"max":[0.0311279296875,0.9061279296875],"min":[0.0001220703125,0.8829345703125],"type":"VEC2"},{"bufferView":18,"componentType":5126,"count":36,"max":[1,3,1],"min":[0,-1,0],"type":"VEC3"},{"bufferView":19,"componentType":5126,"count":36,"max":[1,1,1],"min":[-1,-1,-1],"type":"VEC3"},{"bufferView":20,"componentType":5126,"count":36,"max":[0.1248779296875,0.9608154296875],"min":[0.0938720703125,0.9219970703125],"type":"VEC2"},{"bufferView":21,"componentType":5126,"count":36,"max":[1,5,1],"min":[0,0,0],"type":"VEC3"},{"bufferView":22,"componentType":5126,"count":36,"max":[1,1,1],"min":[-1,-1,-1],"type":"VEC3"},{"bufferView":23,"componentType":5126,"count":36,"max":[0.0623779296875,0.9686279296875],"min":[0.0313720703125,0.9219970703125],"type":"VEC2"},{"bufferView":24,"componentType":5126,"count":36,"max":[1,2,1],"min":[0,-2,0],"type":"VEC3"},{"bufferView":25,"componentType":5126,"count":36,"max":[1,1,1],"min":[-1,-1,-1],"type":"VEC3"},{"bufferView":26,"componentType":5126,"count":36,"max":[0.1170654296875,0.9998779296875],"min":[0.0860595703125,0.9610595703125],"type":"VEC2"},{"bufferView":27,"componentType":5126,"count":36,"max":[0,1,1],"min":[-2,0,0],"type":"VEC3"},{"bufferView":28,"componentType":5126,"count":36,"max":[1,1,1],"min":[-1,-1,-1],"type":"VEC3"},{"bufferView":29,"componentType":5126,"count":36,"max":[0.0467529296875,0.8280029296875],"min":[0.0001220703125,0.8126220703125],"type":"VEC2"},{"bufferView":30,"componentType":5126,"count":36,"max":[1,2,1],"min":[0,0,0],"type":"VEC3"},{"bufferView":31,"componentType":5126,"count":36,"max":[1,1,1],"min":[-1,-1,-1],"type":"VEC3"},{"bufferView":32,"componentType":5126,"count":36,"max":[0.1248779296875,0.8670654296875],"min":[0.0938720703125,0.8438720703125],"type":"VEC2"},{"bufferView":33,"componentType":5126,"count":36,"max":[1,3,1],"min":[0,-1,0],"type":"VEC3"},{"bufferView":34,"componentType":5126,"count":36,"max":[1,1,1],"min":[-1,-1,-1],"type":"VEC3"},{"bufferView":35,"componentType":5126,"count":36,"max":[0.0311279296875,0.8670654296875],"min":[0.0001220703125,0.8282470703125],"type":"VEC2"},{"bufferView":36,"componentType":5126,"count":36,"max":[1,5,1],"min":[0,0,0],"type":"VEC3"},{"bufferView":37,"componentType":5126,"count":36,"max":[1,1,1],"min":[-1,-1,-1],"type":"VEC3"},{"bufferView":38,"componentType":5126,"count":36,"max":[0.0311279296875,0.9530029296875],"min":[0.0001220703125,0.9063720703125],"type":"VEC2"},{"bufferView":39,"componentType":5126,"count":36,"max":[1,2,1],"min":[0,-2,0],"type":"VEC3"},{"bufferView":40,"componentType":5126,"count":36,"max":[1,1,1],"min":[-1,-1,-1],"type":"VEC3"},{"bufferView":41,"componentType":5126,"count":36,"max":[0.1248779296875,0.9217529296875],"min":[0.0938720703125,0.8829345703125],"type":"VEC2"},{"bufferView":42,"componentType":5126,"count":36,"max":[0,1,1],"min":[-2,0,0],"type":"VEC3"},{"bufferView":43,"componentType":5126,"count":36,"max":[1,1,1],"min":[-1,-1,-1],"type":"VEC3"},{"bufferView":44,"componentType":5126,"count":36,"max":[0.0936279296875,0.8280029296875],"min":[0.0469970703125,0.8126220703125],"type":"VEC2"},{"bufferView":45,"componentType":5126,"count":36,"max":[1,2,1],"min":[0,0,0],"type":"VEC3"},{"bufferView":46,"componentType":5126,"count":36,"max":[1,1,1],"min":[-1,-1,-1],"type":"VEC3"},{"bufferView":47,"componentType":5126,"count":36,"max":[0.1248779296875,0.8436279296875],"min":[0.0938720703125,0.8204345703125],"type":"VEC2"},{"bufferView":48,"componentType":5126,"count":36,"max":[1,3,1],"min":[0,-1,0],"type":"VEC3"},{"bufferView":49,"componentType":5126,"count":36,"max":[1,1,1],"min":[-1,-1,-1],"type":"VEC3"},{"bufferView":50,"componentType":5126,"count":36,"max":[0.0623779296875,0.8670654296875],"min":[0.0313720703125,0.8282470703125],"type":"VEC2"},{"bufferView":51,"componentType":5126,"count":36,"max":[1,5,1],"min":[0,0,0],"type":"VEC3"},{"bufferView":52,"componentType":5126,"count":36,"max":[1,1,1],"min":[-1,-1,-1],"type":"VEC3"},{"bufferView":53,"componentType":5126,"count":36,"max":[0.0936279296875,0.9373779296875],"min":[0.0626220703125,0.8907470703125],"type":"VEC2"},{"bufferView":54,"componentType":5126,"count":36,"max":[1,2,1],"min":[0,-2,0],"type":"VEC3"},{"bufferView":55,"componentType":5126,"count":36,"max":[1,1,1],"min":[-1,-1,-1],"type":"VEC3"},{"bufferView":56,"componentType":5126,"count":36,"max":[0.0936279296875,0.8670654296875],"min":[0.0626220703125,0.8282470703125],"type":"VEC2"},{"bufferView":57,"componentType":5126,"count":36,"max":[0,1,1],"min":[-2,0,0],"type":"VEC3"},{"bufferView":58,"componentType":5126,"count":36,"max":[1,1,1],"min":[-1,-1,-1],"type":"VEC3"},{"bufferView":59,"componentType":5126,"count":36,"max":[0.0467529296875,0.8123779296875],"min":[0.0001220703125,0.7969970703125],"type":"VEC2"},{"bufferView":60,"componentType":5126,"count":36,"max":[7,1,8],"min":[3,0,-8],"type":"VEC3"},{"bufferView":61,"componentType":5126,"count":36,"max":[1,1,1],"min":[-1,-1,-1],"type":"VEC3"},{"bufferView":62,"componentType":5126,"count":36,"max":[0.5467529296875,0.7655029296875],"min":[0.2344970703125,0.6329345703125],"type":"VEC2"},{"bufferView":63,"componentType":5126,"count":36,"max":[8,1,8],"min":[1,0,-8],"type":"VEC3"},{"bufferView":64,"componentType":5126,"count":36,"max":[1,1,1],"min":[-1,-1,-1],"type":"VEC3"},{"bufferView":65,"componentType":5126,"count":36,"max":[0.3592529296875,0.8670654296875],"min":[0.0001220703125,0.7344970703125],"type":"VEC2"},{"bufferView":66,"componentType":5126,"count":36,"max":[7,1,6],"min":[2,0,-6],"type":"VEC3"},{"bufferView":67,"componentType":5126,"count":36,"max":[1,1,1],"min":[-1,-1,-1],"type":"VEC3"},{"bufferView":68,"componentType":5126,"count":36,"max":[0.4998779296875,0.8670654296875],"min":[0.2344970703125,0.7657470703125],"type":"VEC2"},{"bufferView":69,"componentType":5126,"count":36,"max":[7,1,6],"min":[2,0,-6],"type":"VEC3"},{"bufferView":70,"componentType":5126,"count":36,"max":[1,1,1],"min":[-1,-1,-1],"type":"VEC3"},{"bufferView":71,"componentType":5126,"count":36,"max":[0.2655029296875,0.7264404296875],"min":[0.0001220703125,0.6251220703125],"type":"VEC2"},{"bufferView":72,"componentType":5126,"count":36,"max":[9,1,9],"min":[-8,0,-7],"type":"VEC3"},{"bufferView":73,"componentType":5126,"count":36,"max":[1,1,1],"min":[-1,-1,-1],"type":"VEC3"},{"bufferView":74,"componentType":5126,"count":36,"max":[0.5155029296875,0.9998779296875],"min":[0.0001220703125,0.8673095703125],"type":"VEC2"}],"materials":[{"pbrMetallicRoughness":{"metallicFactor":0,"roughnessFactor":1,"baseColorTexture":{"index":0}},"alphaMode":"MASK","alphaCutoff":0.05,"doubleSided":true,"name":"texture"}],"textures":[{"sampler":0,"source":0,"name":"texture"}],"samplers":[{"magFilter":9728,"minFilter":9728,"wrapS":33071,"wrapT":33071}],"images":[{"mimeType":"image/png","uri":"data:image/png;base64,"}],"meshes":[{"primitives":[{"mode":4,"attributes":{"POSITION":0,"NORMAL":1,"TEXCOORD_0":2},"material":0}]},{"primitives":[{"mode":4,"attributes":{"POSITION":3,"NORMAL":4,"TEXCOORD_0":5},"material":0}]},{"primitives":[{"mode":4,"attributes":{"POSITION":6,"NORMAL":7,"TEXCOORD_0":8},"material":0}]},{"primitives":[{"mode":4,"attributes":{"POSITION":9,"NORMAL":10,"TEXCOORD_0":11},"material":0}]},{"primitives":[{"mode":4,"attributes":{"POSITION":12,"NORMAL":13,"TEXCOORD_0":14},"material":0}]},{"primitives":[{"mode":4,"attributes":{"POSITION":15,"NORMAL":16,"TEXCOORD_0":17},"material":0}]},{"primitives":[{"mode":4,"attributes":{"POSITION":18,"NORMAL":19,"TEXCOORD_0":20},"material":0}]},{"primitives":[{"mode":4,"attributes":{"POSITION":21,"NORMAL":22,"TEXCOORD_0":23},"material":0}]},{"primitives":[{"mode":4,"attributes":{"POSITION":24,"NORMAL":25,"TEXCOORD_0":26},"material":0}]},{"primitives":[{"mode":4,"attributes":{"POSITION":27,"NORMAL":28,"TEXCOORD_0":29},"material":0}]},{"primitives":[{"mode":4,"attributes":{"POSITION":30,"NORMAL":31,"TEXCOORD_0":32},"material":0}]},{"primitives":[{"mode":4,"attributes":{"POSITION":33,"NORMAL":34,"TEXCOORD_0":35},"material":0}]},{"primitives":[{"mode":4,"attributes":{"POSITION":36,"NORMAL":37,"TEXCOORD_0":38},"material":0}]},{"primitives":[{"mode":4,"attributes":{"POSITION":39,"NORMAL":40,"TEXCOORD_0":41},"material":0}]},{"primitives":[{"mode":4,"attributes":{"POSITION":42,"NORMAL":43,"TEXCOORD_0":44},"material":0}]},{"primitives":[{"mode":4,"attributes":{"POSITION":45,"NORMAL":46,"TEXCOORD_0":47},"material":0}]},{"primitives":[{"mode":4,"attributes":{"POSITION":48,"NORMAL":49,"TEXCOORD_0":50},"material":0}]},{"primitives":[{"mode":4,"attributes":{"POSITION":51,"NORMAL":52,"TEXCOORD_0":53},"material":0}]},{"primitives":[{"mode":4,"attributes":{"POSITION":54,"NORMAL":55,"TEXCOORD_0":56},"material":0}]},{"primitives":[{"mode":4,"attributes":{"POSITION":57,"NORMAL":58,"TEXCOORD_0":59},"material":0}]},{"primitives":[{"mode":4,"attributes":{"POSITION":60,"NORMAL":61,"TEXCOORD_0":62},"material":0}]},{"primitives":[{"mode":4,"attributes":{"POSITION":63,"NORMAL":64,"TEXCOORD_0":65},"material":0}]},{"primitives":[{"mode":4,"attributes":{"POSITION":66,"NORMAL":67,"TEXCOORD_0":68},"material":0}]},{"primitives":[{"mode":4,"attributes":{"POSITION":69,"NORMAL":70,"TEXCOORD_0":71},"material":0}]},{"primitives":[{"mode":4,"attributes":{"POSITION":72,"NORMAL":73,"TEXCOORD_0":74},"material":0}]}]}